<?xml version="1.0" encoding="UTF-8" standalone="no"?>
<!-- Created with Inkscape (http://www.inkscape.org/) -->

<svg
   width="78.013763mm"
   height="8.8126669mm"
   viewBox="0 0 78.013763 8.8126666"
   version="1.1"
   id="svg5"
   inkscape:version="1.1 (c68e22c387, 2021-05-23)"
   sodipodi:docname="bottomleft.svg"
   xmlns:inkscape="http://www.inkscape.org/namespaces/inkscape"
   xmlns:sodipodi="http://sodipodi.sourceforge.net/DTD/sodipodi-0.dtd"
   xmlns="http://www.w3.org/2000/svg"
   xmlns:svg="http://www.w3.org/2000/svg">
  <sodipodi:namedview
     id="namedview7"
     pagecolor="#505050"
     bordercolor="#eeeeee"
     borderopacity="1"
     inkscape:pageshadow="0"
     inkscape:pageopacity="0"
     inkscape:pagecheckerboard="0"
     inkscape:document-units="mm"
     showgrid="false"
     inkscape:zoom="2.9647587"
     inkscape:cx="105.74216"
     inkscape:cy="50.088393"
     inkscape:window-width="1920"
     inkscape:window-height="1017"
     inkscape:window-x="-8"
     inkscape:window-y="-8"
     inkscape:window-maximized="1"
     inkscape:current-layer="svg5"
     fit-margin-top="0"
     fit-margin-left="0"
     fit-margin-right="0"
     fit-margin-bottom="0" />
  <defs
     id="defs2" />
  <path
     style="display:none;fill:none;stroke:#000000;stroke-width:0.264583px;stroke-linecap:butt;stroke-linejoin:miter;stroke-opacity:1"
     d="m 79.270303,9.2406886 c -79.5112704,0 -79.7636884,0 -79.7636884,0 0,0 -2.7765821,-15.1450036 17.4167524,-8.0773376 20.193339,7.0676689 30.542423,1.262084 33.06659,0 2.524168,-1.26208305 8.329753,-4.543499 29.280346,8.0773376 z"
     id="path44"
     mask="none" />
  <path
     style="display:none;fill:none;stroke:#000000;stroke-width:0.264583px;stroke-linecap:butt;stroke-linejoin:miter;stroke-opacity:1"
     d="M 78.375997,8.9514673 H -0.55924842 c 0,0 14.27884542,-12.6278546 29.00390542,-8.16571521 14.72506,4.46213941 21.15054,6.42548081 32.216648,2.23106981 11.066105,-4.1944111 17.714692,5.9346454 17.714692,5.9346454 z"
     id="path3313" />
  <path
     style="display:inline;fill:#ff5555;stroke-width:0.0631042"
     d="M 0.00107732,8.7141374 C 0.16084035,8.521635 2.128286,7.0801229 3.1846232,6.3816113 10.934702,1.2568063 18.877126,-0.87238788 25.77592,0.32536749 c 1.027617,0.178413 1.924036,0.415273 4.543501,1.20052741 8.442097,2.530743 11.873973,3.3627229 15.649836,3.7939469 1.265251,0.1444985 4.871165,0.1642044 6.058001,0.033106 2.795254,-0.3087637 4.873992,-0.8368366 9.087003,-2.308421 1.75147,-0.6117804 3.132876,-0.8577982 4.816584,-0.8577982 1.564642,0 2.717998,0.1843797 4.175762,0.6675527 2.884101,0.9559322 5.854131,3.1644061 7.906941,5.879506 0.04769,0.063083 -7.766011,0.07888 -39.017302,0.07888 -35.4107436,0 -39.06926956,-0.00924 -38.99516868,-0.09853 z"
     id="path3352" />
</svg>
