<?xml version="1.0" encoding="UTF-8" standalone="no"?>
<!-- Created with Inkscape (http://www.inkscape.org/) -->

<svg
   width="77.325783mm"
   height="7.6319389mm"
   viewBox="0 0 77.325783 7.6319387"
   version="1.1"
   id="svg5"
   inkscape:version="1.1 (c68e22c387, 2021-05-23)"
   sodipodi:docname="topleft.svg"
   xmlns:inkscape="http://www.inkscape.org/namespaces/inkscape"
   xmlns:sodipodi="http://sodipodi.sourceforge.net/DTD/sodipodi-0.dtd"
   xmlns="http://www.w3.org/2000/svg"
   xmlns:svg="http://www.w3.org/2000/svg">
  <sodipodi:namedview
     id="namedview7"
     pagecolor="#505050"
     bordercolor="#eeeeee"
     borderopacity="1"
     inkscape:pageshadow="0"
     inkscape:pageopacity="0"
     inkscape:pagecheckerboard="0"
     inkscape:document-units="mm"
     showgrid="false"
     inkscape:zoom="4.192802"
     inkscape:cx="127.71889"
     inkscape:cy="15.145003"
     inkscape:window-width="1920"
     inkscape:window-height="1017"
     inkscape:window-x="-8"
     inkscape:window-y="-8"
     inkscape:window-maximized="1"
     inkscape:current-layer="svg5"
     fit-margin-top="0"
     fit-margin-left="0"
     fit-margin-right="0"
     fit-margin-bottom="0" />
  <defs
     id="defs2" />
  <path
     style="display:none;fill:none;stroke:#000000;stroke-width:0.264583px;stroke-linecap:butt;stroke-linejoin:miter;stroke-opacity:1"
     d="m 79.072601,9.0400325 c -79.51127016,0 -79.76368816,0 -79.76368816,0 0,0 -2.77658204,-15.1450036 17.41675216,-8.07733756 20.193339,7.06766886 30.542423,1.26208396 33.06659,0 2.524168,-1.26208305 8.329753,-4.54349904 29.280346,8.07733756 z"
     id="path44"
     mask="none" />
  <path
     style="display:none;fill:none;stroke:#000000;stroke-width:0.264583px;stroke-linecap:butt;stroke-linejoin:miter;stroke-opacity:1"
     d="M 78.178295,8.7508112 H -0.75695018 c 0,0 14.27884518,-12.6278546 29.00390518,-8.16571517 14.72506,4.46213937 21.15054,6.42548077 32.216648,2.23106977 11.066105,-4.1944111 17.714692,5.9346454 17.714692,5.9346454 z"
     id="path3313" />
  <path
     style="display:none;fill:#ff5555;stroke-width:0.0631042"
     d="M -0.19662444,8.5134813 C -0.03686141,8.3209789 1.9305843,6.8794668 2.9869215,6.1809552 10.737,1.0561502 18.679424,-1.0730439 25.578218,0.12471143 c 1.027617,0.178413 1.924036,0.415273 4.543501,1.20052737 8.442097,2.530743 11.873973,3.3627229 15.649836,3.7939469 1.265251,0.1444985 4.871165,0.1642044 6.058001,0.033106 2.795254,-0.3087637 4.873992,-0.8368366 9.087003,-2.308421 1.75147,-0.6117804 3.132876,-0.8577982 4.816584,-0.8577982 1.564642,0 2.717998,0.1843797 4.175762,0.6675527 2.884101,0.9559322 5.854131,3.1644061 7.906941,5.879506 0.04769,0.063083 -7.766011,0.07888 -39.017302,0.07888 -35.4107433,0 -39.06926932,-0.00924 -38.99516844,-0.09853 z"
     id="path3352" />
  <path
     style="display:none;fill:none;stroke:#000000;stroke-width:0.264583px;stroke-linecap:butt;stroke-linejoin:miter;stroke-opacity:1"
     d="M 77.806954,-0.20065606 H -0.19770176 c 0,0 1.07091342,15.52824406 14.99278776,3.30198296 1.784856,-1.60637 6.06851,-2.85576902 13.029447,2.2310699 6.960938,5.0868382 15.349759,-4.37289666 21.239784,-2.498798 5.890024,1.8740985 14.827221,9.9951912 28.742637,-3.03425486 z"
     id="path144" />
  <path
     style="display:inline;fill:#009807;fill-opacity:1;stroke-width:0.0631042"
     d="M 4.8190805,7.5308776 C 2.6325716,7.0495346 1.0635183,5.0310371 0.28066895,1.6924693 0.1152564,0.98704494 -0.03593563,0.05827234 0.00756217,0.01477453 0.02198349,3.5321881e-4 17.424483,-0.00432376 38.679784,0.00438126 L 77.325783,0.02020856 76.52445,0.72132924 C 73.439985,3.4200596 70.142091,5.356894 67.179306,6.209672 c -1.64719,0.4741114 -2.921175,0.6573401 -4.570471,0.6573401 -2.921497,0 -5.35147,-0.638288 -9.413491,-2.4726701 C 49.043005,2.5191724 48.692244,2.4087812 47.06189,2.4640176 45.445722,2.5187737 44.131248,2.9100887 40.518265,4.4120386 37.491741,5.6701921 36.363553,6.0696937 34.944854,6.3856345 31.990503,7.0435611 29.9876,6.6532642 27.568139,4.9481683 24.981719,3.1254119 22.624885,2.0440254 20.403269,1.6607105 19.533075,1.5105682 18.133342,1.5205083 17.376812,1.6822026 16.647178,1.8381485 15.884562,2.1343894 15.390208,2.4539061 15.175284,2.5928181 14.632864,3.0167354 14.184832,3.3959442 10.39097,6.607019 7.1407508,8.0419748 4.8190805,7.5308776 Z"
     id="path183" />
</svg>
