<?xml version="1.0" encoding="UTF-8" standalone="no"?>
<!-- Created with Inkscape (http://www.inkscape.org/) -->

<svg
   width="77.371773mm"
   height="6.7259369mm"
   viewBox="0 0 77.371772 6.7259367"
   version="1.1"
   id="svg5"
   inkscape:version="1.1 (c68e22c387, 2021-05-23)"
   sodipodi:docname="bottomleft.svg"
   xmlns:inkscape="http://www.inkscape.org/namespaces/inkscape"
   xmlns:sodipodi="http://sodipodi.sourceforge.net/DTD/sodipodi-0.dtd"
   xmlns="http://www.w3.org/2000/svg"
   xmlns:svg="http://www.w3.org/2000/svg">
  <sodipodi:namedview
     id="namedview7"
     pagecolor="#505050"
     bordercolor="#eeeeee"
     borderopacity="1"
     inkscape:pageshadow="0"
     inkscape:pageopacity="0"
     inkscape:pagecheckerboard="0"
     inkscape:document-units="mm"
     showgrid="false"
     inkscape:zoom="4"
     inkscape:cx="132.875"
     inkscape:cy="12.375"
     inkscape:window-width="1920"
     inkscape:window-height="1017"
     inkscape:window-x="-8"
     inkscape:window-y="-8"
     inkscape:window-maximized="1"
     inkscape:current-layer="svg5"
     fit-margin-top="0"
     fit-margin-left="0"
     fit-margin-right="0"
     fit-margin-bottom="0" />
  <defs
     id="defs2" />
  <g
     inkscape:groupmode="layer"
     id="layer1"
     inkscape:label="Layer 1"
     style="display:inline"
     transform="translate(-0.32740518,-1.8777709)" />
  <path
     style="display:none;fill:none;stroke:#000000;stroke-width:0.264583px;stroke-linecap:butt;stroke-linejoin:miter;stroke-opacity:1"
     d="m -0.19511352,6.853479 c 77.52291552,0 77.39062452,0 77.39062452,0 0,0 -8.73125,-9.9218749 -17.859375,-6.21770827 -9.128125,3.70416667 -12.75207,-4.09438383 -19.84375,0 C 32.400706,4.7301546 25.651751,-2.4495086 16.605928,-0.02568757 7.5601049,2.3981333 2.7077138,-3.9800199 -0.19511352,6.853479 Z"
     id="path10184" />
  <path
     style="display:none;fill:#0066ff;stroke-width:0.0467722"
     d="M 10.336649,3.6876347 V 0.69373351 l 0.92375,0.0298687 c 1.32183,0.0427403 2.851318,-0.0680867 4.010713,-0.29061711 0.205798,-0.0395001 0.805651,-0.17490009 1.333007,-0.30088882 0.527356,-0.12598874 1.221923,-0.27121821 1.543482,-0.32273211 2.479945,-0.39728885 4.956152,-0.18305893 8.540883,0.7389174 0.588939,0.15147213 1.733791,0.44570882 2.54412,0.65385973 2.564069,0.6586381 3.77444,0.8546523 5.308642,0.8597101 1.859444,0.00613 3.130185,-0.303742 4.794147,-1.16905858 1.175943,-0.61153126 1.366343,-0.69954575 1.944756,-0.89899179 0.761201,-0.26247322 1.408758,-0.38037762 2.241352,-0.40809544 1.300876,-0.0433074 2.385282,0.1751749 4.825894,0.97230463 1.783283,0.58243848 2.558171,0.80352028 3.429394,0.97843398 1.117068,0.2242716 1.448517,0.2565871 2.61924,0.2553697 1.883251,-0.00196 2.728693,-0.182703 5.448959,-1.16492174 1.793904,-0.64773325 3.668942,-0.82025127 5.589272,-0.51425641 2.681944,0.42735428 5.432224,1.68742735 8.161745,3.73939935 1.072671,0.8064027 2.242627,1.8195041 2.99166,2.5905706 l 0.2321,0.2389299 H 43.578209 10.336649 Z"
     id="path10186" />
  <path
     style="display:none;fill:none;stroke:#000000;stroke-width:0.264583px;stroke-linecap:butt;stroke-linejoin:miter;stroke-opacity:1"
     d="m 77.641797,6.8686243 c -20.673298,0 -77.96920218,0 -77.96920218,0 0,0 5.08968258,-7.22384147 17.21215718,-3.9756342 12.122475,3.2482073 5.893293,-5.332027 20.48621,-1.8708867 14.592914,3.4611402 7.951266,-1.96443094 14.031648,-0.46772157 6.080382,1.49670917 12.347853,4.20949497 16.931526,0.74835457 4.583671,-3.4611403 7.670636,-0.65481027 9.307661,5.5658879 z"
     id="path14523" />
  <path
     style="display:inline;fill:#2a7fff;stroke-width:0.0935442"
     d="M 0.75180573,5.9935343 C 3.3897353,3.4344658 7.304052,2.0948052 11.64627,2.2649434 c 1.68694,0.066098 2.795186,0.2383102 5.238482,0.8140158 2.60785,0.6144786 3.121514,0.6925915 4.583673,0.6970418 1.920065,0.00584 2.829191,-0.3007267 4.5369,-1.5299105 1.210916,-0.8715996 1.755383,-1.179939 2.576986,-1.45938473 0.981723,-0.3339048 2.084403,-0.45401238 3.550168,-0.38669574 1.607894,0.0738442 2.588737,0.22781358 5.42557,0.85168797 4.141999,0.9109062 5.623618,1.1185713 7.592912,1.0642298 1.223788,-0.03377 1.389467,-0.059522 1.901838,-0.2956113 0.337198,-0.1553736 0.785334,-0.4789095 1.122532,-0.8104229 0.308697,-0.30349192 0.679767,-0.59618527 0.824603,-0.65042978 0.630576,-0.23616708 1.506805,-0.0793177 5.223388,0.93501238 3.143877,0.8580266 4.68372,1.2248534 6.031847,1.4369264 3.416284,0.537414 6.056346,0.076377 8.091982,-1.4131107 2.625037,-1.92075752 4.625874,-2.01625734 6.339546,-0.3025857 1.099764,1.0997647 1.850123,2.5949934 2.684261,5.3488989 0.04717,0.1557266 -1.836512,0.1635699 -38.660686,0.160981 L 0,6.7228645 Z"
     id="path14562" />
</svg>
