<?xml version="1.0" encoding="UTF-8" standalone="no"?>
<!-- Created with Inkscape (http://www.inkscape.org/) -->

<svg
   width="78.767601mm"
   height="9.4585428mm"
   viewBox="0 0 78.767601 9.4585428"
   version="1.1"
   id="svg5"
   inkscape:version="1.1 (c68e22c387, 2021-05-23)"
   sodipodi:docname="drawing.svg"
   xmlns:inkscape="http://www.inkscape.org/namespaces/inkscape"
   xmlns:sodipodi="http://sodipodi.sourceforge.net/DTD/sodipodi-0.dtd"
   xmlns="http://www.w3.org/2000/svg"
   xmlns:svg="http://www.w3.org/2000/svg">
  <sodipodi:namedview
     id="namedview7"
     pagecolor="#505050"
     bordercolor="#eeeeee"
     borderopacity="1"
     inkscape:pageshadow="0"
     inkscape:pageopacity="0"
     inkscape:pagecheckerboard="0"
     inkscape:document-units="mm"
     showgrid="false"
     inkscape:zoom="1.4823793"
     inkscape:cx="226.32533"
     inkscape:cy="44.860312"
     inkscape:window-width="1920"
     inkscape:window-height="1017"
     inkscape:window-x="-8"
     inkscape:window-y="-8"
     inkscape:window-maximized="1"
     inkscape:current-layer="layer1"
     fit-margin-top="0"
     fit-margin-left="0"
     fit-margin-right="0"
     fit-margin-bottom="0" />
  <defs
     id="defs2" />
  <path
     style="display:none;fill:none;stroke:#000000;stroke-width:0.264583px;stroke-linecap:butt;stroke-linejoin:miter;stroke-opacity:1"
     d="m 79.651066,-0.25241798 c -79.51127056,0 -79.76368856,0 -79.76368856,0 0,0 -2.77658204,15.14500398 17.41675256,8.07733798 20.193339,-7.06766898 30.542423,-1.262084 33.06659,0 2.524168,1.262083 8.329753,4.543499 29.280346,-8.07733798 z"
     id="path44"
     mask="none" />
  <g
     inkscape:label="Layer 1"
     inkscape:groupmode="layer"
     id="layer1"
     transform="translate(-36.965464,-77.491933)">
    <path
       style="fill:#ffdd55;stroke:none;stroke-width:0.238504"
       d="m 164.09075,328.53669 c -13.24908,-1.81947 -21.08976,-9.00775 -23.90398,-21.91499 -0.45694,-2.09571 -0.52656,-3.14567 -0.53406,-8.05433 -0.005,-3.10447 0.0541,-5.70723 0.13069,-5.78392 0.0766,-0.0767 67.24052,-0.11252 149.25309,-0.0796 l 149.11378,0.0598 -4.48118,2.61174 c -16.73645,9.75446 -33.37539,18.02177 -46.45786,23.08327 -21.59135,8.35353 -38.3191,10.46704 -50.19804,6.34239 -1.11888,-0.3885 -4.77117,-2.02895 -8.11619,-3.64543 -6.79768,-3.28498 -10.46819,-4.81365 -15.3835,-6.40679 -8.30023,-2.69026 -16.1415,-4.28365 -26.23544,-5.33119 -5.7043,-0.59198 -20.79581,-0.59078 -27.07021,0.002 -11.25096,1.06323 -20.61186,2.65964 -31.70259,5.40658 -7.22212,1.78877 -12.18991,3.26247 -22.91482,6.79773 -13.13252,4.32888 -21.27742,6.29314 -29.09749,7.01729 -3.61117,0.3344 -9.57118,0.28409 -12.4022,-0.1047 z"
       id="path83"
       transform="scale(0.26458333)" />
    <path
       style="fill:#ffdd55;stroke-width:0.238504"
       d="m 163.27971,328.28226 c -12.16832,-1.89183 -19.5522,-8.5862 -22.73516,-20.61211 -0.54712,-2.06715 -0.6099,-2.81466 -0.71613,-8.52652 l -0.11643,-6.26073 h 148.85217 c 81.86869,0 148.85216,0.044 148.85216,0.0977 0,0.0537 -2.81733,1.70644 -6.26073,3.67267 -44.11577,25.19076 -74.71708,34.41948 -93.46365,28.18668 -1.13135,-0.37614 -5.16847,-2.13473 -8.97137,-3.90796 -9.1553,-4.26898 -11.69059,-5.27589 -17.99843,-7.14824 -5.64062,-1.6743 -10.98393,-2.82256 -17.24298,-3.70548 -7.18052,-1.01289 -8.57261,-1.08901 -19.79583,-1.08241 -9.68957,0.006 -11.53934,0.0684 -15.83489,0.53639 -17.12654,1.86608 -29.92109,4.75857 -50.82698,11.49058 -15.01289,4.83437 -20.8588,6.31987 -28.61335,7.2709 -3.74134,0.45884 -12.14428,0.45247 -15.1284,-0.0115 z"
       id="path1750"
       transform="scale(0.26458333)" />
    <path
       style="fill:#ffdd55;stroke-width:0.238504"
       d="m 163.27971,328.28226 c -9.29361,-1.44489 -16.00882,-5.87219 -19.84517,-13.08379 -1.22236,-2.29779 -2.28974,-5.09923 -3.00046,-7.87494 -0.41475,-1.6198 -0.50939,-2.89579 -0.60674,-8.1799 l -0.11535,-6.26073 h 148.85217 c 81.86869,0 148.85216,0.044 148.85216,0.0977 0,0.0537 -2.81733,1.70644 -6.26073,3.67267 -44.11577,25.19076 -74.71708,34.41948 -93.46365,28.18668 -1.13135,-0.37614 -5.1561,-2.12457 -8.9439,-3.88539 -10.54907,-4.90392 -14.4825,-6.36809 -22.53633,-8.38887 -10.45951,-2.62438 -19.81729,-3.69889 -32.17062,-3.69397 -11.96191,0.005 -21.15236,0.88916 -33.58182,3.23158 -10.6009,1.99781 -18.36635,4.08838 -34.79906,9.36837 -1.32843,0.42684 -2.59358,0.82845 -3.80209,1.20647 -11.20895,3.50616 -17.54471,4.98303 -24.2919,5.73667 -3.07874,0.34388 -11.73883,0.26354 -14.28651,-0.13256 z"
       id="path1789"
       transform="scale(0.26458333)"
       sodipodi:nodetypes="sssscsssssscssssss" />
  </g>
</svg>
